Coordinates
version=1
nRows=26
nColumns=22
inDegrees=yes

Units are S.I. units (second, meters, Newtons, ...)
If the header above contains a line with 'inDegrees', this indicates whether rotational values are in degrees (yes) or radians (no).

endheader
time	pelvis_tilt	pelvis_list	pelvis_rotation	pelvis_tx	pelvis_ty	pelvis_tz	hip_flexion_r	hip_adduction_r	hip_rotation_r	knee_angle_r	ankle_angle_r	subtalar_angle_r	hip_flexion_l	hip_adduction_l	hip_rotation_l	knee_angle_l	ankle_angle_l	subtalar_angle_l	lumbar_extension	lumbar_bending	lumbar_rotation
      1.49000000	      0.83457284	      0.95834971	     -9.41868043	     -1.03889313	      0.99972406	     -0.20057486	     10.89872152	     -2.64825241	      3.67654486	    -64.50709349	     -0.74566539	      7.52749212	     13.11499768	      3.40338252	     -6.90643874	    -28.26516332	     14.76633491	     -5.71429903	    -13.11715211	     -2.26160165	      3.97898716
      1.50000000	      0.92850300	      0.91564276	     -9.40834827	     -1.03169280	      1.00078837	     -0.20103055	     12.20163017	     -2.61552741	      3.43865063	    -64.97983135	     -0.11203474	      6.86905096	     12.26094283	      3.51689166	     -6.88691450	    -27.71685457	     14.93239966	     -5.75035250	    -13.30015630	     -2.20719301	      3.43733687
      1.51000000	      1.00812872	      0.86168090	     -9.36302452	     -1.02456048	      1.00181255	     -0.20146445	     13.46551126	     -2.55711519	      3.16697279	    -65.20154079	      0.56611650	      6.37882329	     11.42442803	      3.61090850	     -6.85351848	    -27.16701746	     15.06027747	     -5.76384324	    -13.47794613	     -2.13606034	      2.87215958
      1.52000000	      1.06422954	      0.78292262	     -9.29190090	     -1.01746437	      1.00277551	     -0.20186678	     14.69199455	     -2.46566408	      2.84649933	    -65.17094432	      1.25157200	      5.85608186	     10.60480331	      3.66788135	     -6.81263073	    -26.60374185	     15.21224477	     -5.77841443	    -13.63564492	     -2.03172604	      2.32380871
      1.53000000	      1.10421177	      0.69292888	     -9.20696680	     -1.01040895	      1.00366518	     -0.20222221	     15.88012741	     -2.35508244	      2.49603343	    -64.90727534	      1.96999213	      5.41168093	      9.79930123	      3.70179233	     -6.77348636	    -26.03315383	     15.36600417	     -5.77820037	    -13.78104791	     -1.91396964	      1.79195116
      1.54000000	      1.13025838	      0.59904419	     -9.11064694	     -1.00338556	      1.00447308	     -0.20255142	     17.02811897	     -2.24443227	      2.10668068	    -64.42030824	      2.70359858	      5.00597559	      9.00724809	      3.72331732	     -6.73582440	    -25.45508094	     15.51297591	     -5.76494080	    -13.91605288	     -1.78716903	      1.27357637
      1.55000000	      1.14641100	      0.50296085	     -9.00898094	     -0.99638790	      1.00519423	     -0.20285001	     18.13017870	     -2.13553206	      1.68491565	    -63.72123933	      3.43989644	      4.62925151	      8.22449863	      3.73554535	     -6.69842652	    -24.87027760	     15.65902412	     -5.73832746	    -14.04459176	     -1.65465956	      0.78061192
      1.56000000	      1.15355627	      0.41004488	     -8.90763471	     -0.98941892	      1.00581507	     -0.20310547	     19.18714405	     -2.03611084	      1.23552909	    -62.82578235	      4.16097190	      4.33499207	      7.45628093	      3.74004668	     -6.68548429	    -24.28844936	     15.80782017	     -5.69950057	    -14.16792858	     -1.52555155	      0.29851188
      1.57000000	      1.15303550	      0.32209030	     -8.80824516	     -0.98246936	      1.00632987	     -0.20332597	     20.19598198	     -1.95212346	      0.75564726	    -61.74645433	      4.84954984	      4.10851378	      6.70079788	      3.74108036	     -6.69223300	    -23.70894629	     15.96215632	     -5.65315565	    -14.28634347	     -1.40094814	     -0.16664954
      1.58000000	      1.15124544	      0.23681774	     -8.71337122	     -0.97552002	      1.00675511	     -0.20352321	     21.14239730	     -1.88428967	      0.24335747	    -60.48705407	      5.48165369	      3.91717719	      5.94573937	      3.74350665	     -6.69598698	    -23.12473289	     16.11698297	     -5.59930031	    -14.40585857	     -1.27563207	     -0.60383110
      1.59000000	      1.13077456	      0.16043914	     -8.62854089	     -0.96857529	      1.00703803	     -0.20368399	     22.05190633	     -1.84077973	     -0.30958627	    -59.07395365	      6.09223634	      3.81168136	      5.22087605	      3.74529593	     -6.72737785	    -22.55619952	     16.28314378	     -5.55030048	    -14.50452997	     -1.15873635	     -0.98196363
      1.60000000	      1.14107367	      0.08152349	     -8.53371794	     -0.96162569	      1.00729865	     -0.20382943	     22.85379406	     -1.80838938	     -0.89572340	    -57.49606434	      6.58324000	      3.71044522	      4.45592091	      3.75247072	     -6.72036725	    -21.97288192	     16.44034940	     -5.49128770	    -14.64671491	     -1.03592264	     -1.40075033
      1.61000000	      1.13477162	      0.01121014	     -8.45054355	     -0.95466939	      1.00742323	     -0.20391483	     23.61268126	     -1.79047149	     -1.51631027	    -55.78976299	      7.05033701	      3.67830470	      3.71637737	      3.75865841	     -6.73573342	    -21.40341945	     16.60526669	     -5.44275559	    -14.77018583	     -0.92485540	     -1.74908683
      1.62000000	      1.11078873	     -0.04739881	     -8.37546109	     -0.94769929	      1.00741618	     -0.20394706	     24.32879288	     -1.78771819	     -2.17295575	    -53.96244506	      7.46125997	      3.70409131	      3.00289541	      3.76939771	     -6.76292482	    -20.84910244	     16.77031623	     -5.40370485	    -14.87444948	     -0.82724336	     -2.04615828
      1.63000000	      1.10877996	     -0.10723849	     -8.30683363	     -0.94069544	      1.00737138	     -0.20390704	     24.94701667	     -1.77601360	     -2.84205712	    -52.00824869	      7.75434494	      3.77425698	      2.25345107	      3.78006511	     -6.77549205	    -20.27820057	     16.92897251	     -5.36504442	    -15.00698846	     -0.73129654	     -2.33158875
      1.64000000	      1.09761699	     -0.15878211	     -8.24510134	     -0.93368099	      1.00722024	     -0.20376871	     25.51074011	     -1.75581409	     -3.52403755	    -49.95185722	      7.95795752	      3.89535976	      1.51284321	      3.78973816	     -6.80228809	    -19.70630709	     17.08648189	     -5.33011757	    -15.13376372	     -0.65324691	     -2.55820424
      1.65000000	      1.04745084	     -0.20113676	     -8.18226172	     -0.92663876	      1.00690150	     -0.20357448	     26.05309678	     -1.72968643	     -4.23469134	    -47.80564469	      8.05478409	      4.05544914	      0.82868534	      3.79518787	     -6.83691674	    -19.16765571	     17.24363931	     -5.29982322	    -15.21297859	     -0.57883230	     -2.73896142
      1.66000000	      1.00137466	     -0.23222308	     -8.13861646	     -0.91956461	      1.00650604	     -0.20326019	     26.52841865	     -1.67559228	     -4.90972892	    -45.57311959	      7.97567398	      4.27316873	      0.12783590	      3.80776629	     -6.88273121	    -18.61029820	     17.39334314	     -5.26767680	    -15.29804759	     -0.52640410	     -2.87772469
      1.67000000	      0.93451157	     -0.24656598	     -8.10719416	     -0.91245597	      1.00597732	     -0.20283425	     26.96732338	     -1.59471406	     -5.54698293	    -43.27095997	      7.74061705	      4.54564705	     -0.55067869	      3.82667070	     -6.94693964	    -18.05726509	     17.54161050	     -5.23089594	    -15.35654771	     -0.49778660	     -2.97525924
      1.68000000	      0.88500392	     -0.25334191	     -8.09207823	     -0.90527084	      1.00538059	     -0.20229027	     27.32319754	     -1.47714883	     -6.12859416	    -40.90768745	      7.41229458	      4.93198463	     -1.26691544	      3.85257637	     -7.01718740	    -17.47913803	     17.70147422	     -5.16989331	    -15.42985874	     -0.48938211	     -3.01066639
      1.69000000	      0.79346195	     -0.24442756	     -8.07464502	     -0.89804960	      1.00461753	     -0.20166170	     27.67124599	     -1.32424139	     -6.64166790	    -38.50654834	      6.88010974	      5.37176709	     -1.92747421	      3.87949691	     -7.10469237	    -16.92450924	     17.85946852	     -5.08992278	    -15.45186836	     -0.49512480	     -3.03782490
      1.70000000	      0.69656831	     -0.22079392	     -8.06247739	     -0.89076316	      1.00374606	     -0.20093389	     27.97242022	     -1.13506848	     -7.05384573	    -36.08766933	      6.21315900	      5.90013369	     -2.58323758	      3.91501418	     -7.20413055	    -16.37510147	     18.02195199	     -4.98018308	    -15.46263156	     -0.52101978	     -3.04124337
      1.71000000	      0.59345622	     -0.18392434	     -8.04846740	     -0.88340777	      1.00275911	     -0.20011123	     28.23065011	     -0.91183780	     -7.34720926	    -33.67724393	      5.43673281	      6.50964563	     -3.22620522	      3.95513913	     -7.31708704	    -15.84527847	     18.19075657	     -4.84612932	    -15.46149011	     -0.56732901	     -3.03111619
      1.72000000	      0.50145445	     -0.13178933	     -8.03475552	     -0.87594933	      1.00168280	     -0.19923238	     28.43046007	     -0.66636370	     -7.49627630	    -31.30775067	      4.61749606	      7.23863848	     -3.88286142	      4.01141832	     -7.42636831	    -15.32268360	     18.35966226	     -4.67864711	    -15.46495107	     -0.62900018	     -3.00725432
      1.73000000	      0.41291988	     -0.06767615	     -8.00864027	     -0.86839313	      1.00050160	     -0.19828229	     28.58571218	     -0.40649022	     -7.50715366	    -29.01883330	      3.78960076	      8.02319631	     -4.52954476	      4.07182578	     -7.53259332	    -14.83624572	     18.52830824	     -4.50527484	    -15.46561740	     -0.70833113	     -2.98904754
      1.74000000	      0.35801486	      0.00426796	     -7.96828524	     -0.86069143	      0.99926816	     -0.19732506	     28.66550041	     -0.15001021	     -7.37973395	    -26.84855335	      3.04677533	      8.91402868	     -5.20579470	      4.14381031	     -7.60891206	    -14.37939199	     18.69410589	     -4.31011353	    -15.49459281	     -0.79092228	     -2.96879823
